<?xml version="1.0" encoding="UTF-8" standalone="no"?>
<svg width="211px" height="316px" viewBox="0 0 211 316" version="1.1" xmlns="http://www.w3.org/2000/svg" xmlns:xlink="http://www.w3.org/1999/xlink" xmlns:sketch="http://www.bohemiancoding.com/sketch/ns">
    <!-- Generator: Sketch 3.3.3 (12072) - http://www.bohemiancoding.com/sketch -->
    <title>Email</title>
    <desc>Created with Sketch.</desc>
    <defs></defs>
    <g id="Page-1" stroke="none" stroke-width="1" fill="none" fill-rule="evenodd" sketch:type="MSPage">
        <g id="Email" sketch:type="MSArtboardGroup" transform="translate(-94.000000, -158.000000)">
            <g sketch:type="MSLayerGroup" transform="translate(99.000000, 162.000000)">
                <rect id="Envelope" stroke="#5694F1" stroke-width="9" fill="#FFFFFF" sketch:type="MSShapeGroup" x="0.650746269" y="191.056484" width="200.633345" height="115.882646" rx="4"></rect>
                <path d="M0.0282106451,191.916482 L98.753359,114.687735 L200.61797,191.916482 L98.7533617,251.500006 L0.0282106451,191.916482 Z" id="Inside-envelope" stroke="#5694F1" stroke-width="9" stroke-linecap="round" stroke-linejoin="round" fill="#FFFFFF" sketch:type="MSShapeGroup"></path>
                <path d="M11.6743562,200.491464 L11.6743587,88.4000005 L190.608758,88.4000005 L190.608758,197.999999 L99.1367916,252.429603 L11.6743562,200.491464 Z" id="Path-333" stroke="#5694F1" stroke-width="9" stroke-linecap="round" stroke-linejoin="round" fill="#FFFFFF" sketch:type="MSShapeGroup"></path>
                <rect id="Rectangle-130" fill="#5694F1" sketch:type="MSShapeGroup" x="35.53125" y="116.946009" width="129.574219" height="8.09474367" rx="4"></rect>
                <rect id="Rectangle-130-Copy-2" fill="#5694F1" sketch:type="MSShapeGroup" x="35.53125" y="137.121999" width="64.7871094" height="8.09474367" rx="4"></rect>
                <path d="M101.379714,241 C101.379714,241 168.366766,284.045972 198.500006,304 C200.775562,305.506858 197.022708,308.620168 197.022708,308.620168 C199.043809,309.958527 192.414262,311.041504 190.000006,311.03907 L14.4999997,311.03907 C12.081976,311.036632 2.5122001,309.984933 4.49999989,308.620171 C4.49999989,308.620171 2.31054192,305.503215 4.49999989,304 C33.4162607,284.146981 94.1125429,241.053583 94.1125429,241.053583 C94.1125429,241.053583 99.3623456,239.664113 101.379714,241 Z" id="Fold-over" stroke="#5694F1" stroke-width="9" fill="#FFFFFF" sketch:type="MSShapeGroup"></path>
                <path d="M101,44 L101,0" id="Line" stroke="#5694F1" stroke-width="8" stroke-linecap="round" stroke-linejoin="round" sketch:type="MSShapeGroup"></path>
                <path d="M72.7930192,52.6312891 L43.1380553,23.3405081" id="Line-Copy" stroke="#5694F1" stroke-width="8" stroke-linecap="round" stroke-linejoin="round" sketch:type="MSShapeGroup"></path>
                <path d="M129.008344,53.2671063 L158.663308,23.9763252" id="Line-Copy-2" stroke="#5694F1" stroke-width="8" stroke-linecap="round" stroke-linejoin="round" sketch:type="MSShapeGroup"></path>
            </g>
        </g>
    </g>
</svg>