<?xml version="1.0" encoding="UTF-8" standalone="no"?>
<svg width="80px" height="86px" viewBox="0 0 80 86" version="1.1" xmlns="http://www.w3.org/2000/svg" xmlns:xlink="http://www.w3.org/1999/xlink" xmlns:sketch="http://www.bohemiancoding.com/sketch/ns">
    <!-- Generator: Sketch 3.3.3 (12072) - http://www.bohemiancoding.com/sketch -->
    <title>hand</title>
    <desc>Created with Sketch.</desc>
    <defs></defs>
    <g id="Page-1" stroke="none" stroke-width="1" fill="none" fill-rule="evenodd" sketch:type="MSPage">
        <g id="Idea" sketch:type="MSArtboardGroup" transform="translate(-680.000000, -207.000000)" stroke="#5694F1" stroke-width="5" stroke-linecap="round" stroke-linejoin="round">
            <g id="Introduction-section" sketch:type="MSLayerGroup" transform="translate(0.000000, 89.000000)">
                <g id="Content" transform="translate(250.000000, 106.000000)" sketch:type="MSShapeGroup">
                    <g id="hand" transform="translate(471.558385, 53.019535) rotate(37.000000) translate(-471.558385, -53.019535) translate(443.058385, 9.019535)">
                        <path d="M11.6268657,44.9477594 L11.6268657,11.6268657 C11.6268657,11.6268657 11.6406907,5.80652036 17.447211,5.80652031 C23.2537313,5.80652026 22.9067207,11.26603 22.9067207,11.26603 L22.9067207,5.81286977 C22.9067207,5.81286977 23.3334103,0.179750756 28.5398395,0.179751021 C33.7462687,0.179751286 34.0326452,5.67255678 34.0326452,5.67255678 L34.0326452,11.0616414 C34.0326452,11.0616414 34.2086893,5.5160617 39.5782253,5.51606139 C44.9477612,5.51606108 45.3906488,11.328485 45.3906488,11.328485 L45.2887003,23.625458 C45.2887003,23.625458 45.4129769,18.9286669 51.0846186,18.9286672 C56.7562604,18.9286675 56.8275936,24.6716421 56.8275936,24.6716421 L56.8275916,62.6754319 C56.8275916,62.6754319 58.457751,87.9104478 28.5398406,87.9104502 C18.7715234,87.9104511 12.3418962,84.8703523 8.11211789,80.7753631 C-0.612856115,72.3284254 0.0223865521,59.3929962 0.0223865521,59.3929962 L0.266128472,28.3762416 C0.266128472,28.3762416 12.1940299,22.2801771 11.6268661,48.0861454" id="Path-19"></path>
                        <path d="M22.5,10.6343284 L22.5,39.5610905" id="Line"></path>
                        <path d="M33.5,10.6343284 L33.5,40.1759071" id="Line"></path>
                        <path d="M45.5,15.738806 L45.5,45.2327063" id="Line"></path>
                        <path d="M22.8283582,68.0597015 C22.8283582,68.0597015 23.3955224,48.2089552 11.4850746,48.2089552" id="Path-22"></path>
                    </g>
                </g>
            </g>
        </g>
    </g>
</svg>