<?xml version="1.0" encoding="UTF-8" standalone="no"?>
<svg width="330px" height="654px" viewBox="0 0 330 654" version="1.1" xmlns="http://www.w3.org/2000/svg" xmlns:xlink="http://www.w3.org/1999/xlink" xmlns:sketch="http://www.bohemiancoding.com/sketch/ns">
    <!-- Generator: Sketch 3.4 (15575) - http://www.bohemiancoding.com/sketch -->
    <title>white_phone</title>
    <desc>Created with Sketch.</desc>
    <defs>
        <filter x="-50%" y="-50%" width="200%" height="200%" filterUnits="objectBoundingBox" id="filter-1">
            <feOffset dx="0" dy="1" in="SourceAlpha" result="shadowOffsetOuter1"></feOffset>
            <feGaussianBlur stdDeviation="1" in="shadowOffsetOuter1" result="shadowBlurOuter1"></feGaussianBlur>
            <feColorMatrix values="0 0 0 0 0   0 0 0 0 0   0 0 0 0 0  0 0 0 0.07 0" in="shadowBlurOuter1" type="matrix" result="shadowMatrixOuter1"></feColorMatrix>
            <feMerge>
                <feMergeNode in="shadowMatrixOuter1"></feMergeNode>
                <feMergeNode in="SourceGraphic"></feMergeNode>
            </feMerge>
        </filter>
    </defs>
    <g id="Show" stroke="none" stroke-width="1" fill="none" fill-rule="evenodd" sketch:type="MSPage">
        <g id="Phones" sketch:type="MSArtboardGroup" transform="translate(-860.000000, -49.000000)">
            <g id="white_phone" sketch:type="MSLayerGroup" transform="translate(860.000000, 50.000000)">
                <path d="M328,602.144859 C328,628.465616 305.514578,650 278.033611,650 L52.9663886,650 C25.4854223,650 3,628.465616 3,602.144859 L3,47.8560943 C3,21.5353377 25.4854223,0 52.9663886,0 L278.033611,0 C305.514578,0 328,21.5353377 328,47.8560943 L328,602.144859 L328,602.144859 Z" id="Body" stroke="#DDDDDD" fill="#FFFFFF" filter="url(#filter-1)" sketch:type="MSShapeGroup"></path>
                <g id="Header" transform="translate(113.000000, 24.000000)" fill="#EEEEEE" sketch:type="MSShapeGroup">
                    <path d="M12.6400146,6.81951645 C12.6400146,3.50609094 9.95393104,0.820007324 6.64050553,0.820007324 C3.32609826,0.820007324 0.640014648,3.50609094 0.640014648,6.81951645 C0.640014648,10.132942 3.32609826,12.8190256 6.64050553,12.8190256 C9.95393104,12.8190256 12.6400146,10.132942 12.6400146,6.81951645" id="Fill-8"></path>
                    <path d="M80.8201,11.3304 L26.6901,11.3304 C24.5201,11.3304 22.7611,9.09191693 22.7611,6.3304 C22.7611,3.56888307 24.5201,1.3304 26.6901,1.3304 L80.8201,1.3304 C82.9901,1.3304 84.7491,3.56888307 84.7491,6.3304 C84.7491,9.09191693 82.9901,11.3304 80.8201,11.3304" id="Fill-9"></path>
                </g>
                <g id="Side-button" transform="translate(0.000000, 90.000000)" fill="#DDDDDD" sketch:type="MSShapeGroup">
                    <path d="M3.4922,93.219 L3.4922,60.043 L0.0002,60.043 L0.0002,93.219 L3.4922,93.219 Z" id="Fill-10"></path>
                    <path d="M3.492,142.176 L3.492,109 L0,109 L0,142.176 L3.492,142.176 Z" id="Fill-10-Copy"></path>
                    <path d="M3.492,0.727 L0,0.727 L0,33.903 L3.492,33.903 L3.492,0.727 Z" id="Fill-11"></path>
                </g>
                <path d="M191,605 C191,618.255 180.255,629 167,629 C153.745,629 143,618.255 143,605 C143,591.745 153.745,581 167,581 C180.255,581 191,591.745 191,605 L191,605 Z" id="BUtton" stroke-opacity="0.1" stroke="#000000" sketch:type="MSShapeGroup"></path>
            </g>
        </g>
    </g>
</svg>