<?xml version="1.0" encoding="UTF-8" standalone="no"?>
<svg width="36px" height="131px" viewBox="0 0 36 131" version="1.1" xmlns="http://www.w3.org/2000/svg" xmlns:xlink="http://www.w3.org/1999/xlink" xmlns:sketch="http://www.bohemiancoding.com/sketch/ns">
    <!-- Generator: Sketch 3.3.3 (12072) - http://www.bohemiancoding.com/sketch -->
    <title>arrow</title>
    <desc>Created with Sketch.</desc>
    <defs></defs>
    <g id="Mockups" stroke="none" stroke-width="1" fill="none" fill-rule="evenodd" sketch:type="MSPage">
        <g id="Artboard-15" sketch:type="MSArtboardGroup" transform="translate(-226.000000, -343.000000)" stroke="#FFFFFF">
            <g id="arrow" sketch:type="MSLayerGroup" transform="translate(227.000000, 344.000000)">
                <path d="M17.5,127.5 L17.5,2.5" id="Line" stroke-width="5" stroke-linecap="round" stroke-linejoin="round" sketch:type="MSShapeGroup"></path>
                <path d="M20.421875,29 C20.75,29 21,28.75 21,28.421875 C21,28.265625 20.9375,28.140625 20.84375,28.03125 L6.359375,13 L20.84375,-2.03125 C20.9375,-2.140625 21,-2.28125 21,-2.4375 C21,-2.75 20.75,-3 20.421875,-3 C20.265625,-3 20.125,-2.9375 20.015625,-2.828125 L5.15625,12.609375 C5.0625,12.703125 5,12.84375 5,13 C5,13.15625 5.0625,13.296875 5.15625,13.390625 L20.015625,28.828125 C20.125,28.9375 20.265625,29 20.421875,29 L20.421875,29 Z" id="back" stroke-width="4" sketch:type="MSShapeGroup" transform="translate(17.000000, 13.000000) rotate(-270.000000) translate(-17.000000, -13.000000) "></path>
            </g>
        </g>
    </g>
</svg>